<?xml version="1.0" standalone="no"?>
<!DOCTYPE svg PUBLIC "-//W3C//DTD SVG 1.1//EN" "http://www.w3.org/Graphics/SVG/1.1/DTD/svg11.dtd" >
<svg xmlns="http://www.w3.org/2000/svg" xmlns:xlink="http://www.w3.org/1999/xlink" version="1.1">
<metadata>
Created by FontForge 20200427 at Wed Mar 11 17:58:37 2015
 By www
Copyright (c) 2011 Durotype, www.durotype.com. All rights reserved. -- Evaluation copy. This demo font is for testing purposes only.
</metadata>
<defs>
<font id="SimploW90-CapsDEMO" horiz-adv-x="2289" >
  <font-face 
    font-family="SimploW90-CapsDEMO"
    font-weight="400"
    font-variant="small-caps"
    font-stretch="normal"
    units-per-em="3333"
    panose-1="1 0 0 0 0 0 0 0 0 0"
    ascent="2666"
    descent="-667"
    x-height="2240"
    cap-height="2240"
    bbox="-12 -64 3316 2368"
    underline-thickness="166"
    underline-position="-583"
    unicode-range="U+0020-007A"
  />
<missing-glyph horiz-adv-x="2118" 
d="M1328 1141h-539v111l222 124l-222 124v110h539v-115h-345l205 -108v-23l-205 -108h345v-115zM1335 1899q0 -39 -15.5 -77.5t-49.5 -68.5t-87.5 -48.5t-129.5 -18.5q-69 0 -119.5 18.5t-84.5 48.5t-50.5 68.5t-16.5 77.5q0 37 15 75t48 68.5t85.5 49.5t128.5 19
q79 0 132 -20.5t85 -51.5t45.5 -68.5t13.5 -71.5zM887 1899q0 -50 45.5 -69t125.5 -19q81 0 126.5 18.5t45.5 69.5q0 21 -8.5 37.5t-28.5 27.5t-53 16.5t-82 5.5q-35 0 -66 -3.5t-54.5 -13t-37 -26.5t-13.5 -44zM1101 860h134v199h93v-322h-539v315h93v-192h126v178h93v-178
zM789 428q0 63 23 107.5t60.5 72.5t85 40.5t96.5 12.5q46 0 95 -12t88.5 -39t65 -70t25.5 -105v-166h-539v159zM1237 421q0 66 -47.5 91t-129.5 25q-38 0 -71 -5.5t-57 -18t-38 -34t-14 -52.5v-36h357v30zM1879 2368v-2368h-1641v2368h1641zM402 2199v-2030h1313v2030h-1313
z" />
    <glyph glyph-name=".notdef" horiz-adv-x="2118" 
d="M1328 1141h-539v111l222 124l-222 124v110h539v-115h-345l205 -108v-23l-205 -108h345v-115zM1335 1899q0 -39 -15.5 -77.5t-49.5 -68.5t-87.5 -48.5t-129.5 -18.5q-69 0 -119.5 18.5t-84.5 48.5t-50.5 68.5t-16.5 77.5q0 37 15 75t48 68.5t85.5 49.5t128.5 19
q79 0 132 -20.5t85 -51.5t45.5 -68.5t13.5 -71.5zM887 1899q0 -50 45.5 -69t125.5 -19q81 0 126.5 18.5t45.5 69.5q0 21 -8.5 37.5t-28.5 27.5t-53 16.5t-82 5.5q-35 0 -66 -3.5t-54.5 -13t-37 -26.5t-13.5 -44zM1101 860h134v199h93v-322h-539v315h93v-192h126v178h93v-178
zM789 428q0 63 23 107.5t60.5 72.5t85 40.5t96.5 12.5q46 0 95 -12t88.5 -39t65 -70t25.5 -105v-166h-539v159zM1237 421q0 66 -47.5 91t-129.5 25q-38 0 -71 -5.5t-57 -18t-38 -34t-14 -52.5v-36h357v30zM1879 2368v-2368h-1641v2368h1641zM402 2199v-2030h1313v2030h-1313
z" />
    <glyph glyph-name=".null" horiz-adv-x="0" 
 />
    <glyph glyph-name="nonmarkingreturn" horiz-adv-x="1111" 
 />
    <glyph glyph-name="space" unicode=" " horiz-adv-x="950" 
 />
    <glyph glyph-name="zero" unicode="0" horiz-adv-x="2030" 
d="M1016 2272q131 0 241.5 -43.5t201 -120.5t159.5 -183t115.5 -230t70.5 -262t24 -280q0 -143 -21.5 -286t-66 -275t-111 -246t-157 -198t-204.5 -132t-252 -48t-252 48t-204.5 132t-157 198t-111 246t-66 275t-21.5 286q0 142 24 280t70.5 262t115.5 230t159 183
t201 120.5t242 43.5zM1016 2044q-100 0 -180.5 -39.5t-142.5 -107t-106.5 -156.5t-73.5 -188t-42.5 -202t-13.5 -198q0 -101 12.5 -211t40 -216.5t71 -202.5t105.5 -168.5t144 -115.5t186 -43t186 43t144 115.5t105.5 168.5t71 202.5t40 216.5t12.5 211q0 95 -13.5 198
t-42.5 202t-73.5 188t-106.5 156.5t-142.5 107t-180.5 39.5z" />
    <glyph glyph-name="one" unicode="1" horiz-adv-x="1048" 
d="M99 2013l127 227h474v-2240h-251v2013h-350z" />
    <glyph glyph-name="two" unicode="2" horiz-adv-x="1638" 
d="M1479 0h-1379l935 1151q87 107 139 217t52 236q0 90 -35 170t-94.5 140t-139.5 95t-170 35q-93 0 -167.5 -30t-131 -83t-95 -125t-59.5 -157h-229q8 83 36.5 161t74 147.5t107 127t135.5 99.5t158.5 65t176.5 23q157 0 283.5 -54.5t216 -146t138 -211.5t48.5 -252
q0 -103 -19.5 -186t-52 -152t-74 -127.5t-84.5 -113.5l-641 -802h871v-227z" />
    <glyph glyph-name="three" unicode="3" horiz-adv-x="1746" 
d="M366 558q14 -82 59 -148.5t109.5 -114t142.5 -73.5t159 -26q99 0 183.5 32t147 89t97.5 136t35 173q0 92 -33 170.5t-91 136.5t-135.5 93t-166.5 41v204q78 6 145 35t115.5 78t76 116t27.5 148q0 82 -32 154t-87 126t-128 85.5t-154 31.5q-78 0 -144 -25.5t-117 -70.5
t-87 -105t-54 -129h-229q12 115 68 216t141.5 177t194.5 120t227 44q98 0 184 -23t158 -64.5t128.5 -98t96 -124t60 -143.5t20.5 -155q0 -155 -66.5 -275.5t-204.5 -205.5q93 -47 157.5 -109.5t105 -134.5t59 -151.5t18.5 -161.5q0 -128 -49 -246.5t-141.5 -210
t-225.5 -146.5t-300 -55q-86 0 -169 20t-158 57t-139.5 89.5t-114 118t-80.5 142.5t-39 163h230z" />
    <glyph glyph-name="four" unicode="4" horiz-adv-x="1733" 
d="M1348 0h-252v428h-1066l1318 1876v-1648h262v-228h-262v-428zM1096 1553l-621 -897h621v897z" />
    <glyph glyph-name="five" unicode="5" horiz-adv-x="1701" 
d="M1505 2013h-717l-135 -474q14 3 35.5 5.5t35.5 2.5q115 0 220 -26.5t195.5 -76t164 -120t125.5 -158.5t80 -191t28 -218q0 -171 -61.5 -316t-170 -250t-257.5 -164t-324 -59q-105 0 -203 26.5t-185 76.5t-160 122t-127 164l189 131q39 -71 92.5 -125t117 -91.5t134 -56.5
t142.5 -19q78 0 150 20t134 56t113.5 87.5t87.5 113.5t56 134t20 150t-20 150t-56 134t-87.5 113.5t-113.5 87.5t-134 56t-150 20q-138 0 -249.5 -41t-192.5 -110l308 1073h915v-227z" />
    <glyph glyph-name="six" unicode="6" horiz-adv-x="1853" 
d="M1088 2240h294l-547 -704q20 5 48 7.5t48 2.5q107 0 206.5 -28.5t186.5 -80t158 -123.5t122 -159.5t79 -188.5t28 -209t-28 -209t-79 -188.5t-122 -159.5t-158 -123.5t-186.5 -80t-206.5 -28.5t-206.5 28.5t-186 80t-158 123.5t-122.5 159.5t-79 188t-28 209.5
q0 147 50.5 275t138.5 241zM931 1318q-112 0 -208.5 -45.5t-167 -123t-111 -179t-40.5 -213.5q0 -110 40 -211t110.5 -179t167 -124.5t209.5 -46.5q112 0 208.5 45.5t167.5 123t111.5 179t40.5 213.5q0 73 -18 143t-51.5 132.5t-81 115t-106 90.5t-127 59t-144.5 21z" />
    <glyph glyph-name="seven" unicode="7" horiz-adv-x="1809" 
d="M101 2013v227h1696l-1364 -2240h-291l1219 2013h-1260z" />
    <glyph glyph-name="eight" unicode="8" horiz-adv-x="1773" 
d="M882 2272q138 0 254.5 -46t201 -127t132 -192.5t47.5 -242.5q0 -66 -16.5 -132t-51 -128t-88 -119t-126.5 -103q88 -47 153.5 -110.5t108.5 -136.5t64 -152t21 -157q0 -90 -23.5 -174t-67.5 -157.5t-106.5 -133.5t-140 -103t-169 -66.5t-193.5 -23.5q-153 0 -281.5 51.5
t-221.5 140.5t-144.5 209t-51.5 257q0 80 20.5 158t63 149.5t108 135t154.5 113.5q-75 46 -128 103t-87 119t-50 128t-16 132q0 131 47.5 242.5t131.5 192.5t200.5 127t254.5 46zM882 1055q-95 0 -176.5 -33.5t-141.5 -91.5t-94.5 -136.5t-34.5 -167.5t34.5 -167.5t95 -137
t142 -92t175.5 -33.5t176 33.5t142.5 92t95 137t34.5 167.5t-34.5 167.5t-94.5 136.5t-142 91.5t-177 33.5zM882 2056q-80 0 -151 -30.5t-124 -83t-84 -122.5t-31 -150q0 -81 31 -151.5t84 -123t124 -83t151 -30.5q81 0 152 30.5t124.5 83t84 123t30.5 151.5q0 80 -31 150
t-84.5 122.5t-124.5 83t-151 30.5z" />
    <glyph glyph-name="nine" unicode="9" horiz-adv-x="1849" 
d="M768 0h-294l547 704q-20 -5 -48 -7.5t-48 -2.5q-107 0 -206.5 28.5t-186.5 80t-158 123.5t-122 159.5t-79 188t-28 209.5q0 108 28 209t79 188.5t122 159.5t158 123.5t186.5 80t206.5 28.5t206.5 -28.5t186 -80t158 -123.5t122.5 -159.5t79 -188.5t28 -209
q0 -147 -50.5 -275t-138.5 -241zM925 2044q-112 0 -208.5 -45.5t-167.5 -123t-111.5 -179t-40.5 -213.5q0 -73 18 -143t51.5 -132.5t81 -115t106 -90.5t127 -59t144.5 -21q112 0 208.5 45.5t167 123t111 179t40.5 213.5q0 73 -18 143t-51.5 132.5t-81 114.5t-106 90
t-127 59.5t-143.5 21.5z" />
    <glyph glyph-name="A" unicode="A" horiz-adv-x="1974" 
d="M1548 391h-1104l-175 -391h-277l1039 2304l948 -2304h-271zM1021 1678l-472 -1059h904z" />
    <glyph glyph-name="B" unicode="B" horiz-adv-x="1848" 
d="M313 0v2240h551q144 0 270.5 -38.5t220 -111.5t148 -178.5t54.5 -238.5q0 -62 -13.5 -126.5t-45 -126t-82 -118t-123.5 -103.5q102 -46 176 -110.5t122 -141t71 -161t23 -170.5q0 -143 -59.5 -257.5t-162.5 -194t-240.5 -122t-294.5 -42.5h-615zM565 1056v-828h363
q99 0 190.5 24.5t161 75.5t111.5 129t42 185q0 105 -41 182.5t-110 129t-159 77t-188 25.5h-370zM565 2012v-729h307q84 0 162.5 21.5t138.5 66.5t96 114t36 163q0 96 -36.5 164.5t-98 113t-141 65.5t-165.5 21h-299z" />
    <glyph glyph-name="C" unicode="C" 
d="M2004 1745q-63 66 -139.5 119.5t-163 91t-181 58t-193.5 20.5q-125 0 -241 -33t-216 -92.5t-182.5 -143t-141.5 -185t-91 -218t-32 -242.5t32 -242.5t91 -218t141.5 -185t182.5 -143t216 -92.5t241 -33q102 0 198.5 21.5t185 61t166 95.5t140.5 126l166 -166
q-79 -87 -175 -156.5t-205 -118.5t-229 -75t-247 -26q-159 0 -307 41t-276.5 116t-234 180.5t-180.5 233.5t-116.5 275t-41.5 306t41.5 306t116.5 275t180.5 233.5t234 180.5t276 116t307.5 41q126 0 245.5 -26t228.5 -75t205 -118t176 -156z" />
    <glyph glyph-name="D" unicode="D" horiz-adv-x="2274" 
d="M313 0v2240h478q182 0 350 -34.5t313.5 -101t264.5 -163t203.5 -221t130.5 -275.5t46 -325q0 -154 -38.5 -297.5t-111 -267.5t-176.5 -226.5t-235 -175.5t-287 -113t-332 -40h-606zM565 2012v-1784h360q133 0 253 31.5t222.5 89.5t185 139t140.5 180t89 213.5t31 238.5
q0 141 -37 262t-104.5 220t-162.5 175.5t-211.5 128.5t-251 79t-281.5 27h-233z" />
    <glyph glyph-name="E" unicode="E" horiz-adv-x="1561" 
d="M1390 2240v-228h-825v-693h697v-228h-697v-863h880v-228h-1132v2240h1077z" />
    <glyph glyph-name="F" unicode="F" horiz-adv-x="1453" 
d="M313 0v2240h1077v-228h-825v-693h697v-228h-697v-1091h-252z" />
    <glyph glyph-name="G" unicode="G" horiz-adv-x="2513" 
d="M1349 761v228h1043q-5 -144 -43.5 -276t-107 -245.5t-164 -205.5t-214 -157.5t-257.5 -101t-294 -35.5q-159 0 -306 41t-275 116t-233.5 180.5t-180.5 233.5t-116 275t-41 306t41 306t116 275t180.5 233.5t233.5 180.5t275 116t306 41q144 0 279.5 -34t255.5 -97
t222.5 -152t181.5 -199l-182 -151q-62 89 -144 162t-179.5 124.5t-207 80t-226.5 28.5q-124 0 -239.5 -32.5t-215 -92.5t-181.5 -143t-140.5 -185t-90.5 -218.5t-32 -242.5t32 -242.5t90.5 -218.5t140.5 -185t181.5 -143t214.5 -92.5t240 -32.5q143 0 271 37t230 108
t171.5 174t95.5 236h-731z" />
    <glyph glyph-name="H" unicode="H" horiz-adv-x="2287" 
d="M565 2240v-921h1155v921h252v-2240h-252v1091h-1155v-1091h-252v2240h252z" />
    <glyph glyph-name="I" unicode="I" horiz-adv-x="870" 
d="M565 2240v-2240h-252v2240h252z" />
    <glyph glyph-name="J" unicode="J" horiz-adv-x="1305" 
d="M116 266q21 -12 46.5 -24.5t54.5 -22.5t63 -16.5t72 -6.5q90 0 165 28t128.5 93.5t83.5 171.5t30 262v1489h252v-1549q0 -133 -26 -238.5t-72 -186t-108.5 -137t-135.5 -92.5t-154 -52.5t-163 -16.5q-56 0 -104 7.5t-89.5 20.5t-77.5 30t-68 35z" />
    <glyph glyph-name="K" unicode="K" horiz-adv-x="1958" 
d="M313 2240h252v-954l961 954h349l-1057 -1052l1143 -1188h-351l-1045 1085v-1085h-252v2240z" />
    <glyph glyph-name="L" unicode="L" horiz-adv-x="1299" 
d="M565 2240v-2012h716v-228h-968v2240h252z" />
    <glyph glyph-name="M" unicode="M" horiz-adv-x="2605" 
d="M1298 -64l-624 1587l-354 -1523h-258l542 2304l694 -1756l695 1756l544 -2304h-260l-354 1523z" />
    <glyph glyph-name="N" unicode="N" horiz-adv-x="2611" 
d="M2041 2240h251v-2304l-1727 1767v-1703h-252v2304l1728 -1765v1701z" />
    <glyph glyph-name="O" unicode="O" horiz-adv-x="2650" 
d="M1321 2272q159 0 306 -41t275 -116t233 -180.5t180 -233.5t116 -275t41 -306t-41 -306t-116 -275t-180 -233.5t-233 -180.5t-275 -116t-306 -41t-306 41t-274.5 116t-232.5 180.5t-180 233.5t-116 275t-41 306t41 306t116 275t180 233.5t232.5 180.5t274.5 116t306 41z
M1321 2034q-124 0 -239 -33t-214.5 -92.5t-181.5 -143t-140.5 -185t-90.5 -218t-32 -242.5t32 -242.5t90.5 -218t140.5 -185t182 -143t214.5 -92.5t238.5 -33t239 33t215 92.5t182 143t140.5 185t90.5 218t32 242.5t-32 242.5t-90.5 218t-140.5 185t-181.5 143t-215 92.5
t-239.5 33z" />
    <glyph glyph-name="P" unicode="P" horiz-adv-x="1635" 
d="M565 0h-252v2240h574q142 0 267.5 -44t218.5 -127t147 -202.5t54 -269.5q0 -149 -53.5 -268t-146.5 -202t-218 -127t-267 -44h-324v-956zM565 2012v-829h292q92 0 176.5 24.5t148.5 75t102 128.5t38 186t-38.5 186.5t-103 129.5t-149 75t-177.5 24h-289z" />
    <glyph glyph-name="Q" unicode="Q" horiz-adv-x="2697" 
d="M2475 -32q-92 0 -172 12.5t-150 33.5t-131.5 49.5t-117.5 60.5q-128 -75 -274 -115.5t-306 -40.5q-159 0 -306 41t-274.5 116t-232.5 180.5t-180 233.5t-116 275t-41 306t41 306t116 275t180 233.5t232.5 180.5t274.5 116t306 41t306 -41t275 -116t233 -180.5t180 -233.5
t116 -275t41 -306q0 -125 -25.5 -242t-73 -223.5t-115.5 -201t-152 -172.5q79 -38 168 -62t198 -24v-227zM1199 675q121 0 218 -23t179.5 -60.5t154 -84.5t140.5 -94q76 63 137.5 141t104.5 168t66.5 190.5t23.5 207.5q0 126 -32 242.5t-90.5 218t-140.5 185t-181.5 143
t-215 92.5t-239.5 33t-239 -33t-214.5 -92.5t-181.5 -143t-140.5 -185t-90.5 -218t-32 -242.5t32 -242.5t90.5 -218t140.5 -185t182 -143t214.5 -92.5t238.5 -33q93 0 179.5 19t165.5 54q-53 34 -106 64.5t-110 53.5t-120 37t-134 14v227z" />
    <glyph glyph-name="R" unicode="R" horiz-adv-x="1727" 
d="M565 1021v-1021h-252v2240h573q143 0 268.5 -41.5t218.5 -120t147 -191.5t54 -256q0 -98 -27 -186.5t-78.5 -162t-125.5 -130.5t-168 -92l415 -1060h-278l-396 1021h-351zM565 2012v-763h321q85 0 164 22t139.5 68.5t96.5 118.5t36 173q0 100 -36 172.5t-96.5 118.5
t-139.5 68t-164 22h-321z" />
    <glyph glyph-name="S" unicode="S" horiz-adv-x="1538" 
d="M1120 1845q-95 103 -181 154t-179 51q-57 0 -111 -16.5t-95 -50.5t-66 -87t-25 -126q0 -86 40.5 -158t107.5 -136t152 -123.5t174 -121.5t174 -129.5t152 -148.5t107.5 -177.5t40.5 -216.5q0 -129 -43 -237.5t-123 -187t-194.5 -122.5t-257.5 -44q-123 0 -226 29
t-187 82.5t-149 129t-113 167.5l200 115q40 -71 88 -125.5t106.5 -92t129 -56.5t156.5 -19q70 0 135 23.5t115 66.5t80.5 103t30.5 132q0 103 -40.5 184.5t-106.5 150t-151 129.5t-173 122t-173 127.5t-151 146.5t-106.5 178t-40.5 223q0 104 41 193.5t112 155t166 102.5
t204 37q161 0 295.5 -71t256.5 -218z" />
    <glyph glyph-name="T" unicode="T" horiz-adv-x="1409" 
d="M834 2012v-2012h-252v2012h-560v228h1371v-228h-559z" />
    <glyph glyph-name="U" unicode="U" 
d="M1735 2240h252v-2031q-80 -55 -171.5 -99.5t-189.5 -76t-200 -48.5t-204 -17q-129 0 -247.5 14.5t-221 51t-187 98.5t-144.5 158.5t-93 230t-33 312.5v1407h252v-1326q0 -160 27 -275.5t74 -195.5t111.5 -129t139.5 -76t157 -36t165 -9q57 0 120.5 9t129 28t132 48.5
t131.5 70.5v1891z" />
    <glyph glyph-name="V" unicode="V" horiz-adv-x="1912" 
d="M265 2240l711 -1664l677 1664h272l-948 -2304l-984 2304h272z" />
    <glyph glyph-name="W" unicode="W" horiz-adv-x="3345" 
d="M1002 -64l-978 2304h273l703 -1659l676 1723l700 -1720l669 1656h271l-941 -2304l-699 1717z" />
    <glyph glyph-name="X" unicode="X" horiz-adv-x="1728" 
d="M67 2240h294l504 -820l504 820h298l-654 -1060l726 -1180h-295l-579 943l-579 -943h-294l726 1180z" />
    <glyph glyph-name="Y" unicode="Y" horiz-adv-x="1686" 
d="M972 0h-252v1052l-732 1188h295l563 -913l560 913h295l-729 -1188v-1052z" />
    <glyph glyph-name="Z" unicode="Z" horiz-adv-x="1572" 
d="M1507 228v-228h-1459l1053 2012h-959v228h1364l-1053 -2012h1054z" />
    <glyph glyph-name="a" unicode="a" horiz-adv-x="1974" 
d="M1548 391h-1104l-175 -391h-277l1039 2304l948 -2304h-271zM1021 1678l-472 -1059h904z" />
    <glyph glyph-name="b" unicode="b" horiz-adv-x="1848" 
d="M313 0v2240h551q144 0 270.5 -38.5t220 -111.5t148 -178.5t54.5 -238.5q0 -62 -13.5 -126.5t-45 -126t-82 -118t-123.5 -103.5q102 -46 176 -110.5t122 -141t71 -161t23 -170.5q0 -143 -59.5 -257.5t-162.5 -194t-240.5 -122t-294.5 -42.5h-615zM565 1056v-828h363
q99 0 190.5 24.5t161 75.5t111.5 129t42 185q0 105 -41 182.5t-110 129t-159 77t-188 25.5h-370zM565 2012v-729h307q84 0 162.5 21.5t138.5 66.5t96 114t36 163q0 96 -36.5 164.5t-98 113t-141 65.5t-165.5 21h-299z" />
    <glyph glyph-name="c" unicode="c" 
d="M2004 1745q-63 66 -139.5 119.5t-163 91t-181 58t-193.5 20.5q-125 0 -241 -33t-216 -92.5t-182.5 -143t-141.5 -185t-91 -218t-32 -242.5t32 -242.5t91 -218t141.5 -185t182.5 -143t216 -92.5t241 -33q102 0 198.5 21.5t185 61t166 95.5t140.5 126l166 -166
q-79 -87 -175 -156.5t-205 -118.5t-229 -75t-247 -26q-159 0 -307 41t-276.5 116t-234 180.5t-180.5 233.5t-116.5 275t-41.5 306t41.5 306t116.5 275t180.5 233.5t234 180.5t276 116t307.5 41q126 0 245.5 -26t228.5 -75t205 -118t176 -156z" />
    <glyph glyph-name="d" unicode="d" horiz-adv-x="2274" 
d="M313 0v2240h478q182 0 350 -34.5t313.5 -101t264.5 -163t203.5 -221t130.5 -275.5t46 -325q0 -154 -38.5 -297.5t-111 -267.5t-176.5 -226.5t-235 -175.5t-287 -113t-332 -40h-606zM565 2012v-1784h360q133 0 253 31.5t222.5 89.5t185 139t140.5 180t89 213.5t31 238.5
q0 141 -37 262t-104.5 220t-162.5 175.5t-211.5 128.5t-251 79t-281.5 27h-233z" />
    <glyph glyph-name="e" unicode="e" horiz-adv-x="1561" 
d="M1390 2240v-228h-825v-693h697v-228h-697v-863h880v-228h-1132v2240h1077z" />
    <glyph glyph-name="f" unicode="f" horiz-adv-x="1453" 
d="M313 0v2240h1077v-228h-825v-693h697v-228h-697v-1091h-252z" />
    <glyph glyph-name="g" unicode="g" horiz-adv-x="2513" 
d="M1349 761v228h1043q-5 -144 -43.5 -276t-107 -245.5t-164 -205.5t-214 -157.5t-257.5 -101t-294 -35.5q-159 0 -306 41t-275 116t-233.5 180.5t-180.5 233.5t-116 275t-41 306t41 306t116 275t180.5 233.5t233.5 180.5t275 116t306 41q144 0 279.5 -34t255.5 -97
t222.5 -152t181.5 -199l-182 -151q-62 89 -144 162t-179.5 124.5t-207 80t-226.5 28.5q-124 0 -239.5 -32.5t-215 -92.5t-181.5 -143t-140.5 -185t-90.5 -218.5t-32 -242.5t32 -242.5t90.5 -218.5t140.5 -185t181.5 -143t214.5 -92.5t240 -32.5q143 0 271 37t230 108
t171.5 174t95.5 236h-731z" />
    <glyph glyph-name="h" unicode="h" horiz-adv-x="2287" 
d="M565 2240v-921h1155v921h252v-2240h-252v1091h-1155v-1091h-252v2240h252z" />
    <glyph glyph-name="i" unicode="i" horiz-adv-x="870" 
d="M565 2240v-2240h-252v2240h252z" />
    <glyph glyph-name="j" unicode="j" horiz-adv-x="1305" 
d="M116 266q21 -12 46.5 -24.5t54.5 -22.5t63 -16.5t72 -6.5q90 0 165 28t128.5 93.5t83.5 171.5t30 262v1489h252v-1549q0 -133 -26 -238.5t-72 -186t-108.5 -137t-135.5 -92.5t-154 -52.5t-163 -16.5q-56 0 -104 7.5t-89.5 20.5t-77.5 30t-68 35z" />
    <glyph glyph-name="k" unicode="k" horiz-adv-x="1958" 
d="M313 2240h252v-954l961 954h349l-1057 -1052l1143 -1188h-351l-1045 1085v-1085h-252v2240z" />
    <glyph glyph-name="l" unicode="l" horiz-adv-x="1299" 
d="M565 2240v-2012h716v-228h-968v2240h252z" />
    <glyph glyph-name="m" unicode="m" horiz-adv-x="2605" 
d="M1298 -64l-624 1587l-354 -1523h-258l542 2304l694 -1756l695 1756l544 -2304h-260l-354 1523z" />
    <glyph glyph-name="n" unicode="n" horiz-adv-x="2611" 
d="M2041 2240h251v-2304l-1727 1767v-1703h-252v2304l1728 -1765v1701z" />
    <glyph glyph-name="o" unicode="o" horiz-adv-x="2650" 
d="M1321 2272q159 0 306 -41t275 -116t233 -180.5t180 -233.5t116 -275t41 -306t-41 -306t-116 -275t-180 -233.5t-233 -180.5t-275 -116t-306 -41t-306 41t-274.5 116t-232.5 180.5t-180 233.5t-116 275t-41 306t41 306t116 275t180 233.5t232.5 180.5t274.5 116t306 41z
M1321 2034q-124 0 -239 -33t-214.5 -92.5t-181.5 -143t-140.5 -185t-90.5 -218t-32 -242.5t32 -242.5t90.5 -218t140.5 -185t182 -143t214.5 -92.5t238.5 -33t239 33t215 92.5t182 143t140.5 185t90.5 218t32 242.5t-32 242.5t-90.5 218t-140.5 185t-181.5 143t-215 92.5
t-239.5 33z" />
    <glyph glyph-name="p" unicode="p" horiz-adv-x="1635" 
d="M565 0h-252v2240h574q142 0 267.5 -44t218.5 -127t147 -202.5t54 -269.5q0 -149 -53.5 -268t-146.5 -202t-218 -127t-267 -44h-324v-956zM565 2012v-829h292q92 0 176.5 24.5t148.5 75t102 128.5t38 186t-38.5 186.5t-103 129.5t-149 75t-177.5 24h-289z" />
    <glyph glyph-name="q" unicode="q" horiz-adv-x="2697" 
d="M2475 -32q-92 0 -172 12.5t-150 33.5t-131.5 49.5t-117.5 60.5q-128 -75 -274 -115.5t-306 -40.5q-159 0 -306 41t-274.5 116t-232.5 180.5t-180 233.5t-116 275t-41 306t41 306t116 275t180 233.5t232.5 180.5t274.5 116t306 41t306 -41t275 -116t233 -180.5t180 -233.5
t116 -275t41 -306q0 -125 -25.5 -242t-73 -223.5t-115.5 -201t-152 -172.5q79 -38 168 -62t198 -24v-227zM1199 675q121 0 218 -23t179.5 -60.5t154 -84.5t140.5 -94q76 63 137.5 141t104.5 168t66.5 190.5t23.5 207.5q0 126 -32 242.5t-90.5 218t-140.5 185t-181.5 143
t-215 92.5t-239.5 33t-239 -33t-214.5 -92.5t-181.5 -143t-140.5 -185t-90.5 -218t-32 -242.5t32 -242.5t90.5 -218t140.5 -185t182 -143t214.5 -92.5t238.5 -33q93 0 179.5 19t165.5 54q-53 34 -106 64.5t-110 53.5t-120 37t-134 14v227z" />
    <glyph glyph-name="r" unicode="r" horiz-adv-x="1727" 
d="M565 1021v-1021h-252v2240h573q143 0 268.5 -41.5t218.5 -120t147 -191.5t54 -256q0 -98 -27 -186.5t-78.5 -162t-125.5 -130.5t-168 -92l415 -1060h-278l-396 1021h-351zM565 2012v-763h321q85 0 164 22t139.5 68.5t96.5 118.5t36 173q0 100 -36 172.5t-96.5 118.5
t-139.5 68t-164 22h-321z" />
    <glyph glyph-name="s" unicode="s" horiz-adv-x="1538" 
d="M1120 1845q-95 103 -181 154t-179 51q-57 0 -111 -16.5t-95 -50.5t-66 -87t-25 -126q0 -86 40.5 -158t107.5 -136t152 -123.5t174 -121.5t174 -129.5t152 -148.5t107.5 -177.5t40.5 -216.5q0 -129 -43 -237.5t-123 -187t-194.5 -122.5t-257.5 -44q-123 0 -226 29
t-187 82.5t-149 129t-113 167.5l200 115q40 -71 88 -125.5t106.5 -92t129 -56.5t156.5 -19q70 0 135 23.5t115 66.5t80.5 103t30.5 132q0 103 -40.5 184.5t-106.5 150t-151 129.5t-173 122t-173 127.5t-151 146.5t-106.5 178t-40.5 223q0 104 41 193.5t112 155t166 102.5
t204 37q161 0 295.5 -71t256.5 -218z" />
    <glyph glyph-name="t" unicode="t" horiz-adv-x="1409" 
d="M834 2012v-2012h-252v2012h-560v228h1371v-228h-559z" />
    <glyph glyph-name="u" unicode="u" 
d="M1735 2240h252v-2031q-80 -55 -171.5 -99.5t-189.5 -76t-200 -48.5t-204 -17q-129 0 -247.5 14.5t-221 51t-187 98.5t-144.5 158.5t-93 230t-33 312.5v1407h252v-1326q0 -160 27 -275.5t74 -195.5t111.5 -129t139.5 -76t157 -36t165 -9q57 0 120.5 9t129 28t132 48.5
t131.5 70.5v1891z" />
    <glyph glyph-name="v" unicode="v" horiz-adv-x="1912" 
d="M265 2240l711 -1664l677 1664h272l-948 -2304l-984 2304h272z" />
    <glyph glyph-name="w" unicode="w" horiz-adv-x="3345" 
d="M1002 -64l-978 2304h273l703 -1659l676 1723l700 -1720l669 1656h271l-941 -2304l-699 1717z" />
    <glyph glyph-name="x" unicode="x" horiz-adv-x="1728" 
d="M67 2240h294l504 -820l504 820h298l-654 -1060l726 -1180h-295l-579 943l-579 -943h-294l726 1180z" />
    <glyph glyph-name="y" unicode="y" horiz-adv-x="1686" 
d="M972 0h-252v1052l-732 1188h295l563 -913l560 913h295l-729 -1188v-1052z" />
    <glyph glyph-name="z" unicode="z" horiz-adv-x="1572" 
d="M1507 228v-228h-1459l1053 2012h-959v228h1364l-1053 -2012h1054z" />
    </font>
</defs>
</svg>
